<svg xmlns="http://www.w3.org/2000/svg" xmlns:xlink="http://www.w3.org/1999/xlink" id="Layer_2" data-name="Layer 2" viewBox="0 0 32.13 7.18">
  <defs fill="#000000">
    <style>
      .cls-1 {
        fill: #d1113f;
      }

      .cls-2 {
        fill: url(#linear-gradient-3);
      }

      .cls-3 {
        fill: url(#linear-gradient-2);
      }

      .cls-4 {
        fill: url(#linear-gradient);
      }
    </style>
    <linearGradient id="linear-gradient" x1="0" y1="6.08" x2="18.18" y2="6.08" gradientUnits="userSpaceOnUse" fill="#000000">
      <stop offset="0" stop-color="#30141d" fill="#000000"/>
      <stop offset=".14" stop-color="#36131d" fill="#000000"/>
      <stop offset=".32" stop-color="#47101d" fill="#000000"/>
      <stop offset=".48" stop-color="#5e0e1d" fill="#000000"/>
      <stop offset=".55" stop-color="#520f1d" fill="#000000"/>
      <stop offset=".7" stop-color="#3f111d" fill="#000000"/>
      <stop offset=".85" stop-color="#33131d" fill="#000000"/>
      <stop offset="1" stop-color="#30141d" fill="#000000"/>
    </linearGradient>
    <linearGradient id="linear-gradient-2" x1="0" y1="6.08" x2="18.18" y2="6.08" gradientUnits="userSpaceOnUse" fill="#000000">
      <stop offset="0" stop-color="#ff2463" fill="#000000"/>
      <stop offset=".01" stop-color="#f8225f" fill="#000000"/>
      <stop offset=".12" stop-color="#d11948" fill="#000000"/>
      <stop offset=".23" stop-color="#b21236" fill="#000000"/>
      <stop offset=".33" stop-color="#9b0d29" fill="#000000"/>
      <stop offset=".42" stop-color="#8e0b21" fill="#000000"/>
      <stop offset=".51" stop-color="#8a0a1f" fill="#000000"/>
      <stop offset=".59" stop-color="#8f0b22" fill="#000000"/>
      <stop offset=".68" stop-color="#9f0e2b" fill="#000000"/>
      <stop offset=".79" stop-color="#b9143a" fill="#000000"/>
      <stop offset=".91" stop-color="#dd1c4f" fill="#000000"/>
      <stop offset="1" stop-color="#ff2463" fill="#000000"/>
    </linearGradient>
    <linearGradient id="linear-gradient-3" x1="16409.6" y1="-7.37" x2="16409.6" y2="-16.9" gradientTransform="translate(21.22 16415.68) rotate(-90)" gradientUnits="userSpaceOnUse" fill="#000000">
      <stop offset="0" stop-color="#a84747" fill="#000000"/>
      <stop offset=".5" stop-color="#fff" fill="#000000"/>
      <stop offset=".56" stop-color="#fbf8f8" fill="#000000"/>
      <stop offset=".64" stop-color="#f3e6e6" fill="#000000"/>
      <stop offset=".73" stop-color="#e4c7c7" fill="#000000"/>
      <stop offset=".83" stop-color="#d19e9e" fill="#000000"/>
      <stop offset=".94" stop-color="#b86868" fill="#000000"/>
      <stop offset="1" stop-color="#a84747" fill="#000000"/>
    </linearGradient>
    <symbol id="ShieldLink_Line_2" data-name="ShieldLink Line 2" viewBox="0 0 56.93 12.72" fill="#000000">
      <g>
        <g>
          <g>
            <path class="cls-1" d="M34.54,12.23l.52-.63c.25.2.55.34.81.34.28,0,.39-.09.39-.25,0-.17-.18-.22-.47-.34l-.43-.18c-.37-.15-.7-.47-.7-.96,0-.61.54-1.08,1.29-1.08.4,0,.83.15,1.15.46l-.46.58c-.23-.17-.44-.25-.69-.25-.22,0-.36.08-.36.23,0,.17.2.22.51.35l.42.17c.43.17.68.46.68.95,0,.2-.05.38-.15.54-.21.34-.62.56-1.2.56-.43,0-.93-.16-1.31-.5Z" fill="#000000"/>
            <path class="cls-1" d="M38.29,10.91v1.75h-.92v-3.45h.92v.61l-.04.46c.09-.08.2-.16.33-.23.13-.07.28-.11.46-.11.29,0,.51.1.64.29.13.2.19.46.19.79v1.64h-.91v-1.52c0-.17-.02-.29-.07-.34-.04-.06-.11-.09-.2-.09-.08,0-.15.02-.21.06-.06.03-.12.09-.19.15Z" fill="#000000"/>
            <path class="cls-1" d="M41.07,10.26v2.4h-.92v-2.4c0-.12.06-.23.16-.3.07-.05.18-.07.18-.2s-.07-.15-.14-.2c-.07-.05-.18-.18-.18-.41,0-.27.17-.47.44-.47s.44.18.44.47c0,.25-.11.36-.18.41-.06.04-.13.08-.13.21s.1.14.18.19c.1.06.16.18.16.3Z" fill="#000000"/>
            <path class="cls-1" d="M41.22,11.33c0-.29.06-.54.19-.75.25-.42.66-.65,1.09-.65.76,0,1.16.53,1.16,1.29,0,.15-.02.32-.04.38h-1.52c.09.32.32.43.62.43.17,0,.35-.05.54-.16l.3.54c-.28.2-.67.31-.97.31-.82,0-1.37-.54-1.37-1.4ZM42.88,11.01c0-.21-.09-.38-.36-.38-.2,0-.37.11-.43.38h.79Z" fill="#000000"/>
            <path class="cls-1" d="M43.84,11.72v-2.52h.92v2.56c0,.18.09.23.15.23.04,0,.05,0,.1-.01l.11.67c-.09.04-.24.07-.45.07-.61,0-.82-.39-.82-1Z" fill="#000000"/>
            <path class="cls-1" d="M45.01,11.33c0-.29.05-.54.16-.75.21-.42.56-.64.93-.64.29,0,.46.1.62.27l-.03-.38v-.62h.92v3.46h-.75l-.06-.25h-.02c-.18.18-.44.31-.67.31-.66,0-1.09-.54-1.09-1.4ZM46.68,11.78v-.98c-.11-.1-.24-.13-.36-.13-.19,0-.37.17-.37.64s.15.66.39.66c.14,0,.25-.04.34-.19Z" fill="#000000"/>
            <path class="cls-1" d="M47.85,12.66v-3.46h.92v2.69h1.31v.77h-2.23Z" fill="#000000"/>
            <path class="cls-1" d="M51.25,10.26v2.4h-.92v-2.4c0-.12.06-.23.16-.3.07-.05.18-.07.18-.2s-.07-.15-.14-.2c-.07-.05-.18-.18-.18-.41,0-.27.17-.47.44-.47s.44.18.44.47c0,.25-.11.36-.18.41-.06.04-.13.08-.13.21s.1.14.18.19c.1.06.16.18.16.3Z" fill="#000000"/>
            <path class="cls-1" d="M51.54,12.66v-2.66h.75l.06.32h.02c.21-.21.48-.38.84-.38.59,0,.83.43.83,1.09v1.64h-.92v-1.52c0-.34-.08-.43-.27-.43-.17,0-.26.07-.4.2v1.75h-.92Z" fill="#000000"/>
            <path class="cls-1" d="M55.19,10.92h.02l.74-.93h.78c.08,0,.13.1.07.16l-.81.95.93,1.44c.03.05,0,.12-.06.12h-.85l-.53-.95-.28.31v.64h-.89v-3.46h.89v1.73Z" fill="#000000"/>
          </g>
          <g>
            <g>
              <path class="cls-1" d="M34.97,2.36h.75c.21,0,.38.15.42.35l.06.32h.04c.44-.43.9-.8,1.64-.8s1.21.31,1.5.87c.45-.46.94-.87,1.68-.87,1.2,0,1.72.87,1.72,2.22v2.93c0,.24-.19.43-.43.43h-1.02c-.24,0-.43-.19-.43-.43v-2.69c0-.7-.18-.87-.54-.87-.22,0-.48.13-.76.41v3.15c0,.24-.19.43-.43.43h-1.02c-.24,0-.43-.19-.43-.43v-2.69c0-.7-.18-.87-.54-.87-.22,0-.48.13-.76.41v3.15c0,.24-.19.43-.43.43h-1.02c-.24,0-.43-.19-.43-.43V2.79c0-.23.19-.43.43-.43Z" fill="#000000"/>
              <path class="cls-1" d="M46.28,2.36h.75c.2,0,.38.15.42.35l.06.31h.04c.44-.41.98-.79,1.72-.79,1.2,0,1.7.87,1.7,2.22v2.93c0,.24-.19.43-.43.43h-1.02c-.24,0-.43-.19-.43-.43v-2.69c0-.7-.18-.87-.54-.87-.35,0-.54.15-.83.41v3.15c0,.24-.19.43-.43.43h-1.02c-.24,0-.43-.19-.43-.43V2.79c0-.23.2-.43.44-.43Z" fill="#000000"/>
              <path class="cls-1" d="M25.09,5.02c-.28-.25-.69-.45-1.25-.61-.31-.09-.55-.16-.74-.2s-.27-.12-.27-.23c0-.17.21-.26.64-.26.2,0,.39.02.56.05s.33.07.47.1h0c.23.07.48-.07.53-.31l.15-.62c.05-.21-.07-.43-.27-.49-.04-.02-.08-.03-.13-.04-.16-.04-.36-.08-.59-.12s-.5-.06-.81-.06c-.44,0-.82.05-1.14.13-.32.09-.57.21-.77.37s-.34.35-.44.57-.14.46-.14.72c0,.33.06.61.19.82s.28.39.47.53c.19.14.39.24.61.32.22.08.43.14.62.19.24.06.43.11.57.15s.2.11.2.22c0,.09-.06.16-.19.19s-.29.06-.49.06c-.24,0-.46-.02-.66-.06-.2-.04-.37-.08-.51-.14-.02,0-.03-.01-.04-.02-.23-.08-.48.06-.54.3l-.15.6c-.05.21.07.43.27.5.06.02.11.04.17.06.18.06.39.1.65.14s.55.06.89.06c.79,0,1.42-.15,1.87-.44.45-.3.68-.75.68-1.37,0-.49-.14-.86-.42-1.1Z" fill="#000000"/>
              <path class="cls-1" d="M56.49,5.02c-.28-.25-.69-.45-1.25-.61-.31-.09-.55-.16-.74-.2s-.27-.12-.27-.23c0-.17.21-.26.64-.26.2,0,.39.02.56.05s.33.07.47.1h0c.23.07.48-.07.53-.31l.15-.62c.05-.21-.07-.43-.27-.49-.04-.02-.08-.03-.13-.04-.16-.04-.36-.08-.59-.12s-.5-.06-.81-.06c-.44,0-.82.05-1.14.13-.32.09-.57.21-.77.37s-.34.35-.44.57c-.09.22-.14.46-.14.72,0,.33.06.61.19.82s.28.39.47.53.39.24.61.32.43.14.62.19c.24.06.43.11.57.15.13.04.2.11.2.22,0,.09-.06.16-.19.19-.12.04-.29.06-.49.06-.24,0-.46-.02-.66-.06-.2-.04-.37-.08-.51-.14-.02,0-.03-.01-.04-.02-.23-.08-.48.06-.54.3l-.15.6c-.05.21.07.43.27.5.06.02.11.04.17.06.18.06.39.1.65.14s.55.06.89.06c.79,0,1.42-.15,1.87-.44.45-.3.68-.75.68-1.37,0-.49-.14-.86-.42-1.1Z" fill="#000000"/>
              <path class="cls-1" d="M27.38,7.82h-.91c-.27,0-.49-.22-.49-.49V.73c0-.27.22-.49.49-.49h.91c.27,0,.49.22.49.49v6.6c0,.27-.22.49-.49.49Z" fill="#000000"/>
              <path class="cls-1" d="M33.87,3.9c-.12-.35-.31-.65-.55-.9-.24-.24-.54-.44-.9-.57s-.76-.2-1.22-.2-.86.07-1.22.2c-.36.13-.66.33-.9.57s-.43.54-.55.9-.19.75-.19,1.18.06.83.19,1.18c.12.35.31.65.55.9.24.25.54.44.9.58s.76.2,1.22.2.86-.07,1.22-.2c.36-.13.66-.33.9-.58.24-.25.43-.55.55-.9.12-.35.19-.75.19-1.18s-.06-.83-.19-1.18ZM31.8,6.01c-.11.23-.32.35-.61.35s-.49-.11-.61-.35-.17-.54-.17-.93.06-.69.17-.92c.11-.23.32-.34.61-.34s.5.11.61.34.17.53.17.92-.06.69-.17.93Z" fill="#000000"/>
              <path class="cls-1" d="M52.62,1.37c-.05.19-.13.35-.25.5-.15.19-.63.7-.87.5-.07-.06-.09-.17-.05-.26.1-.2.38-.45.24-.51-.1-.03-.21-.03-.31-.05-.12-.02-.22-.08-.23-.21-.02-.09-.02-.88-.02-.92,0-.13.06-.32.21-.35.13-.03.72-.15,1.25.02.24.08.08,1.1.03,1.29Z" fill="#000000"/>
            </g>
            <path class="cls-1" d="M44.53,2.16v-.08c0-.12.07-.22.18-.26h0c.12-.05.22-.11.3-.19.08-.08.14-.18.18-.3s.06-.24.06-.39-.02-.27-.06-.39-.1-.21-.18-.3c-.08-.08-.18-.15-.3-.19-.12-.05-.25-.07-.4-.07s-.29.02-.4.07c-.12.05-.22.11-.3.19-.08.08-.14.18-.18.3-.04.11-.06.24-.06.39s.02.27.06.39c.04.11.1.21.18.3.08.08.18.15.3.19h0c.11.04.18.15.18.26v.08c0,.11-.07.22-.18.26-.32.12-.55.44-.55.8v4.17c0,.24.19.43.43.43h1.02c.24,0,.43-.19.43-.43V3.22c0-.36-.23-.67-.55-.8-.09-.04-.17-.15-.17-.26Z" fill="#000000"/>
          </g>
        </g>
        <g>
          <path class="cls-4" d="M6.64.76c-.38-.08-.78-.13-1.19-.13s-.81.05-1.19.13C1.59,1.36-.34,3.91.05,6.83c.34,2.52,2.52,4.53,5.05,4.68,1.55.09,2.94-.44,3.99-1.4.68.63,1.5,1.08,2.44,1.28.38.08.78.13,1.19.13s.81-.05,1.19-.13c2.85-.65,4.87-3.49,4.12-6.65-.48-2-2.15-3.59-4.16-4-1.84-.37-3.54.17-4.77,1.29-.68-.63-1.52-1.08-2.45-1.28Z" fill="#000000"/>
          <path class="cls-3" d="M13.86.74c2.02.4,3.68,2,4.16,4,.4,1.69.01,3.29-.87,4.51-1.01,1.4-3.25.6-3.25-1.12h0c0-.34.07-.69.27-.96.23-.3.37-.69.37-1.1,0-1.01-.82-1.82-1.84-1.82s-1.82.81-1.82,1.82c0,1.6-.7,3.06-1.81,4.04-1.04.96-2.44,1.49-3.99,1.4C2.57,11.36.39,9.35.05,6.83c-.2-1.46.19-2.83.95-3.9,1-1.41,3.26-.63,3.26,1.11h0c0,.33-.06.68-.26.94-.23.3-.37.69-.37,1.1,0,1.01.81,1.82,1.82,1.82s1.82-.81,1.82-1.82c0-1.62.7-3.06,1.82-4.04,1.22-1.12,2.93-1.66,4.77-1.29Z" fill="#000000"/>
          <path class="cls-2" d="M4.32,6.08h0c0,.66.53,1.19,1.19,1.19h7.16c.66,0,1.19-.53,1.19-1.19h0c0-.66-.53-1.19-1.19-1.19h-7.16c-.66,0-1.19.53-1.19,1.19Z" fill="#000000"/>
        </g>
      </g>
    </symbol>
  </defs>
  <g id="Layer_1-2" data-name="Layer 1">
    <g id="Shieldlink_line_Mono" data-name="Shieldlink line Mono">
      <use width="56.93" height="12.72" transform="scale(.56)" xlink:href="#ShieldLink_Line_2" fill="#000000"/>
    </g>
  </g>
</svg>