<?xml version="1.0" encoding="UTF-8"?>
<!-- Generator: Adobe Illustrator 24.0.0, SVG Export Plug-In . SVG Version: 6.00 Build 0)  -->
<svg version="1.1" id="Layer_1" xmlns="http://www.w3.org/2000/svg" xmlns:xlink="http://www.w3.org/1999/xlink" x="0px" y="0px" viewBox="0 0 284 311.5" style="enable-background:new 0 0 284 311.5;" xml:space="preserve" width="284" height="311">
<style type="text/css">
	.st0{fill:#FAAB54;}
	.st1{fill:#EF3E33;}
	.st2{fill:#FFFFFF;}
</style>
<g id="Layer_2_1_">
	<g id="_ÎÓÈ_1">
		<g>
			<g>
				<path class="st0" d="M142,311.4c4.4-18,17.7-28.2,27.1-34.1c17.9-11.3,51.5-17.4,71.7-27.1s36.4-31.5,38-54.7      c2.2-31.4-30.8-67-23.4-103c6.6-32,28.2-43.2,28.2-43.2L244.7,9.5c0,0-4.4,23.6-41.1,21.5s-62-30.6-62-30.6s-25.3,28.6-62,30.3      C46.1,32.3,39.1,9.5,39.1,9.5l-38.6,40c0,0,21.5,12,28.2,44c7.5,35.9-26.5,70.9-24.3,102.3c1.7,23.2,18,44.9,38.1,54.6      s53.9,15.7,71.8,26.9C123.7,283.3,137.5,293.4,142,311.4z"/>
				<path class="st0" d="M141.7,311.5c-4.4-17.7-17.8-27.8-27.6-33.9c-10-6.3-25.2-11-39.8-15.5c-11.3-3.5-23.1-7.1-32-11.4      C21,240.4,5.7,218.4,4,195.9c-1-14.3,5.3-29.1,12.1-44.8c8-18.6,16.3-37.9,12.2-57.5C21.8,62,0.5,49.9,0.3,49.8L0,49.6L39.2,9      l0.1,0.4c0.1,0.2,6.8,21.1,36.9,21.1c1.1,0,2.2,0,3.3-0.1c36.1-1.7,61.6-29.9,61.8-30.2l0.2-0.2l0.2,0.2      c0.3,0.3,25.7,28.4,61.8,30.5c1.6,0.1,3.1,0.1,4.6,0.1c16.6,0,25.6-5.8,30.2-10.7c2.9-3,5-6.7,6-10.7l0.1-0.5l0.4,0.4l39.2,40      l-0.3,0.2c-0.2,0.1-21.6,11.5-28,43c-4,19.6,4,39.1,11.8,58c6.5,15.8,12.6,30.7,11.6,44.9c-1.6,22.5-16.9,44.5-38.2,54.9      c-8.9,4.3-20.6,8-31.9,11.5c-14.6,4.6-29.8,9.3-39.8,15.6c-14.8,9.3-23.7,20.5-27,34L141.7,311.5z M0.9,49.5      c2.6,1.6,21.8,14.3,28,44c4.1,19.7-4.2,39.1-12.2,57.8c-6.7,15.6-13,30.4-12,44.5c1.6,22.4,16.9,44.2,38,54.4      c8.9,4.3,20.6,7.9,31.9,11.4c14.7,4.5,29.8,9.2,39.9,15.5c9.6,6,22.8,15.9,27.5,33.2c3.6-13.2,12.4-24.1,27-33.3      c10.1-6.3,25.2-11.1,39.9-15.7c11.3-3.5,23-7.2,31.9-11.5c21.1-10.2,36.3-32.1,37.8-54.5c1-14.1-5.1-29-11.6-44.7      c-7.8-18.9-15.8-38.5-11.8-58.3c6.1-29.7,25.3-41.7,28-43.2l-38.4-39.1c-1.1,3.9-3.2,7.5-6,10.4c-4.7,5-13.8,10.9-30.6,10.9      c-1.5,0-3,0-4.6-0.1c-34.6-2-59.5-27.8-62-30.5c-2.5,2.7-27.3,28.5-62,30.2c-1.1,0-2.3,0.1-3.3,0.1C60.3,31.1,51,25.3,46,20.4      c-3-2.9-5.4-6.4-7-10.4L0.9,49.5z"/>
			</g>
			<g>
				<path class="st1" d="M142.5,295.7c4-16.3,16.1-25.7,24.7-31c16.3-10.2,46.9-15.8,65.2-24.7s33.1-28.6,34.5-49.7      c2-28.6-30.1-61.8-23.4-94.4c6-29.1,23.7-42.9,23.7-42.9l-25.9-24.4c0,0-8.8,18.4-42.1,16.5S142,16.6,142,16.6h-0.1      c0,0-23.8,26.5-57.1,28.5S42.6,28.9,42.6,28.9L16.8,53.3c0,0,17.7,13.7,23.8,42.8c6.8,32.6-25.2,66-23.1,94.5      c1.5,21.1,16.3,40.8,34.7,49.6s49,14.3,65.3,24.5C126,270.1,138.5,279.4,142.5,295.7z"/>
				<path class="st0" d="M137.3,297c-3.6-14.3-14.7-22.6-22.8-27.7c-8.6-5.4-22-9.5-35-13.5c-10.5-3.3-21.3-6.6-29.8-10.7      c-21-10.1-36.1-31.8-37.7-54.1c-1-14.3,5.2-28.6,11.9-43.8c7.2-16.6,14.7-33.8,11.4-50c-5.6-26.8-21.7-39.5-21.8-39.6l-5-3.8      l35.9-34l3,6.8C47.9,27.4,55,40,79.6,40c1.5,0,3.1,0,4.7-0.2c30.6-1.9,53.2-26.5,53.4-26.8l1.3-1.4l4.9-0.8l2,2.2      c0.2,0.2,22.9,24.8,53.5,26.6c1.5,0.1,3.1,0.1,4.5,0.1c25.3,0,32.4-13.4,32.4-13.5l3.2-6.6l35.8,33.8l-5,3.9      c-0.1,0.1-16.2,13.1-21.7,39.7c-3.3,16.2,4.2,33.3,11.5,50c6.7,15.2,13,29.5,12,43.8c-1.5,22.3-16.6,44-37.6,54.2      c-8.4,4.1-19.3,7.5-29.7,10.8c-13,4.1-26.4,8.3-34.9,13.6c-7.9,4.9-18.7,13.2-22.3,27.8L137.3,297z M24.6,53.3      c6.1,6.4,16.7,20.1,21.2,41.8c4.1,19.5-4.1,38.3-12,56.5c-6.1,13.9-11.8,27.1-11,38.8c1.3,18.3,14.3,36.8,31.6,45.2      c7.7,3.7,17.7,6.8,28.3,10.1c13.7,4.2,27.8,8.6,37.5,14.7c7.1,4.4,16.1,11,22.3,21.4c4.7-8.1,11.9-15.2,21.8-21.5      c9.7-6.1,23.8-10.5,37.5-14.8c10.6-3.3,20.6-6.4,28.3-10.2c17.3-8.4,30.3-27,31.5-45.3c0.8-11.6-5-24.8-11.1-38.7      c-8-18.1-16.2-36.9-12.2-56.4c4.4-21.7,15-35.4,21.1-41.8L242,36.6c-5.4,5.8-16.7,13.9-38,13.9c-1.7,0-3.4,0-5.1-0.2      c-27.4-1.6-48.5-18.4-56.9-26.2c-8.3,7.9-29.4,24.7-56.9,26.4c-1.8,0.1-3.6,0.2-5.4,0.2c-21.1,0-32.4-8-37.8-13.8L24.6,53.3z"/>
			</g>
			<path class="st2" d="M105.5,54.8h21.3v7.8h-6.6v31.1H112V62.6h-6.4L105.5,54.8z"/>
			<path class="st2" d="M129.5,93.7V54.8h8.2v14.9h5.7V54.8h8.2v38.9h-8.2V77.5h-5.7v16.2H129.5z"/>
			<path class="st2" d="M154.2,93.7V54.8H173v7.8h-10.6v7.2h10.3v7.8h-10.3v8.4h11.2v7.8L154.2,93.7z"/>
			<path class="st2" d="M65.7,124.2v2.8c0,2.2,0.7,4.2,3.3,4.2c1.9,0,2.8-1.9,2.8-3.9c0-3.3-2.4-4.5-4.6-6c-2.3-1.3-4.4-3.1-6.2-5.1     c-1.7-2.2-2.5-5-2.4-7.8c0-7.3,4-11,10.3-11c7.1,0,10.8,5.3,10.4,12.6h-7.6c-0.1-2.3,0-5.4-2.7-5.6c-1.7-0.2-2.7,0.9-2.8,2.6     c-0.2,2.3,0.8,3.5,2.5,4.8c3.1,2.2,5.7,3.5,7.7,5.5s3,4.6,3,9.3c0,7.5-3.7,11.6-10.5,11.6c-7.5,0-10.7-4.7-10.7-9.8v-4.1     L65.7,124.2z"/>
			<path class="st2" d="M81.7,137.2V98.3h8.2v31.1h10v7.8H81.7z"/>
			<path class="st2" d="M124.4,124.8c0,8.8-2.8,13.3-11,13.3s-11.2-4.6-11.2-13.3V109c0-7.5,4-11.6,11.2-11.6s11,4.1,11,11.6V124.8z      M116.2,109.7c0-2.4-0.2-5.2-2.9-5.2s-2.9,2.8-2.9,5.2v16c0,2.2,0.3,5.5,3,5.5s2.8-3.3,2.8-5.5L116.2,109.7z"/>
			<path class="st2" d="M127.2,137.2V98.3h11.6l4.2,23h0.1l4.4-23H159v38.9h-7.8l0.8-30.5h-0.1l-5.8,30.5H140l-5.6-30.5h-0.1     l0.8,30.5L127.2,137.2z"/>
			<path class="st2" d="M161.6,137.2V98.3h8.2v38.9L161.6,137.2z"/>
			<path class="st2" d="M180,115.4L180,115.4l0.7,21.8h-7.8V98.3h8.4l6.3,21.7h0.1L187,98.3h7.8v38.9h-8.4L180,115.4z"/>
			<path class="st2" d="M197.4,113V99h5.6v14H197.4z"/>
			<path class="st2" d="M212.3,124.2v2.8c0,2.2,0.7,4.2,3.3,4.2c1.9,0,2.8-1.9,2.8-3.9c0-3.3-2.4-4.5-4.6-6c-2.3-1.3-4.4-3-6.2-5.1     c-1.7-2.2-2.5-5-2.4-7.8c0-7.3,4-11,10.3-11c7.1,0,10.8,5.3,10.4,12.6h-7.6c-0.1-2.3,0-5.4-2.7-5.6c-1.7-0.2-2.6,0.9-2.8,2.6     c-0.2,2.3,0.8,3.5,2.5,4.8c3.1,2.2,5.7,3.5,7.6,5.5s3,4.6,3,9.3c0,7.5-3.7,11.6-10.5,11.6c-7.5,0-10.7-4.7-10.7-9.8v-4.1     L212.3,124.2z"/>
			<path class="st2" d="M85.9,168.1v2.8c0,2.2,0.7,4.2,3.3,4.2c1.9,0,2.8-1.9,2.8-3.9c0-3.3-2.4-4.5-4.6-6c-2.3-1.3-4.4-3-6.2-5.1     c-1.7-2.2-2.5-5-2.4-7.8c0-7.3,4-11,10.3-11c7.1,0,10.8,5.3,10.4,12.6H92c-0.1-2.3,0-5.4-2.7-5.6c-1.7-0.1-2.7,0.9-2.8,2.6     c-0.2,2.3,0.8,3.5,2.5,4.8c3.1,2.2,5.7,3.5,7.7,5.5s3,4.6,3,9.3c0,7.5-3.7,11.6-10.5,11.6c-7.5,0-10.7-4.7-10.7-9.8v-4.1     L85.9,168.1z"/>
			<path class="st2" d="M101.5,181.1v-38.9h8.2v14.9h5.7v-14.9h8.2v38.9h-8.2V165h-5.7v16.2L101.5,181.1z"/>
			<path class="st2" d="M126.4,181.1v-38.9h8.2v38.9H126.4z"/>
			<path class="st2" d="M137.1,181.1v-38.9h18.8v7.8h-10.6v7.2h10.3v7.8h-10.3v8.4h11.1v7.8L137.1,181.1z"/>
			<path class="st2" d="M158.5,181.1v-38.9h8.2v31.1h10v7.8H158.5z"/>
			<path class="st2" d="M178.8,181.1v-38.9h8.9c3,0,6.6,0.1,9.2,1.8c3.2,2.1,3.7,5.9,3.7,9.6V171c0,3.9-1.1,6.7-3.5,8.4     c-2.1,1.6-4.8,1.8-7.3,1.8L178.8,181.1z M187,174.1c5.5,0.4,5.6-2.1,5.4-7.3v-12.7c0-4.6-1.4-4.8-5.4-4.9V174.1z"/>
			<path class="st0" d="M51.7,204.8v-5.5h-5.2v5.5h-1.8v-12.7h1.8v5.5h5.2v-5.5h1.9v12.7H51.7z"/>
			<path class="st0" d="M61.8,205.1c-3.6,0-6.6-3-6.6-6.6c0-3.6,3-6.6,6.6-6.6c3.6,0,6.6,3,6.6,6.6c0,0,0,0,0,0     C68.4,202.2,65.4,205.1,61.8,205.1z M61.8,193.6c-2.7-0.1-5,2-5,4.7s2,5,4.7,5c2.7,0.1,5-2,5-4.7c0,0,0-0.1,0-0.1     c0.1-2.6-2-4.9-4.6-4.9C61.9,193.6,61.8,193.6,61.8,193.6z"/>
			<path class="st0" d="M81.7,204.8v-10.7l0,0l-4.3,10.7h-1.2L72,194.1l0,0v10.7h-1.9v-12.7H73l3.8,9.7l3.8-9.7h2.9v12.7H81.7z"/>
			<path class="st0" d="M85.7,204.8v-12.7h6.8v1.7h-5v3.7h5v1.7h-5v3.9h5v1.7H85.7z"/>
			<path class="st0" d="M100.5,201.1c-0.1,1.2,0.8,2.2,2,2.3c0,0,0.1,0,0.1,0c1.1,0,2-0.9,2-2c0-0.1,0-0.1,0-0.2     c0-1.4-1.2-1.7-2-2.1c-1-0.3-1.9-0.8-2.7-1.4c-0.6-0.7-0.9-1.5-0.8-2.4c0-1.9,1.6-3.5,3.5-3.5c0,0,0,0,0,0     c1.9-0.1,3.5,1.3,3.6,3.2c0,0.1,0,0.2,0,0.3h-1.9c0.1-0.9-0.6-1.8-1.6-1.8c-0.1,0-0.1,0-0.2,0c-0.9,0-1.7,0.8-1.7,1.7     c0,1.2,1.2,1.5,1.7,1.8c1.6,0.6,3.9,1.1,3.9,4.1c0.1,2-1.5,3.8-3.6,3.9c-0.1,0-0.2,0-0.3,0c-2.1,0.1-3.9-1.6-3.9-3.7     c0-0.1,0-0.2,0-0.3H100.5z"/>
			<path class="st0" d="M108.2,204.8v-12.7h6.8v1.7h-5v3.7h5v1.7h-5v3.9h5v1.7H108.2z"/>
			<path class="st0" d="M126.6,195.4c-0.9-1.1-2.2-1.8-3.6-1.8c-2.6,0-4.7,2.2-4.7,4.8c0,0,0,0,0,0c0,2.6,2,4.8,4.7,4.9     c1.3,0,2.6-0.6,3.5-1.7h2.3c-1.2,2.1-3.4,3.4-5.8,3.4c-3.6-0.1-6.5-3-6.5-6.6c0-3.6,2.9-6.5,6.5-6.5c0,0,0.1,0,0.1,0     c1.4,0,2.7,0.4,3.9,1.2c0.8,0.6,1.5,1.4,2,2.3L126.6,195.4z"/>
			<path class="st0" d="M139.1,200.7c0.1,1.2-0.4,2.4-1.3,3.3c-1.7,1.4-4.2,1.4-5.9,0c-0.9-0.9-1.3-2-1.3-3.3v-8.6h1.9v8.5     c-0.1,1.3,0.8,2.5,2.1,2.7c1.3,0.1,2.5-0.8,2.7-2.1c0-0.2,0-0.4,0-0.5v-8.5h1.9L139.1,200.7z"/>
			<path class="st0" d="M147.3,204.8l-4.2-5.8l0,0v5.9h-1.9v-12.7h3.9c1.2-0.1,2.4,0.3,3.4,1.1c0.8,0.8,1.2,1.9,1.2,3     c0.1,2-1.4,3.8-3.4,3.9c-0.1,0-0.2,0-0.2,0l3.6,4.7L147.3,204.8z M143.1,198.7h1.3c0.8,0,3.5,0,3.5-2.5c0-1.1-0.7-2.4-2.8-2.4     h-1.9V198.7z"/>
			<path class="st0" d="M152.2,204.8v-12.7h1.8v12.7H152.2z"/>
			<path class="st0" d="M158.2,204.8v-11h-2.4v-1.7h6.7v1.7H160v11H158.2z"/>
			<path class="st0" d="M167.9,204.8v-4.6l-3.9-8.1h2.1l2.8,6l2.8-6h2.1l-3.9,8.1v4.6H167.9z"/>
			<path class="st0" d="M179.9,201.1c-0.1,1.2,0.8,2.2,2,2.3c0,0,0.1,0,0.1,0c1.1,0,2-0.9,2-2c0-0.1,0-0.1,0-0.2     c0-1.4-1.2-1.7-2-2.1c-1-0.3-1.9-0.8-2.7-1.4c-0.6-0.7-0.9-1.5-0.9-2.4c0-1.9,1.6-3.5,3.5-3.5c0,0,0,0,0.1,0     c1.9-0.1,3.5,1.3,3.6,3.2c0,0.1,0,0.2,0,0.3h-1.9c0.1-0.9-0.6-1.8-1.6-1.8c-0.1,0-0.1,0-0.2,0c-0.9,0-1.7,0.8-1.7,1.7     c0,1.2,1.1,1.5,1.7,1.8c1.6,0.6,3.9,1.1,3.9,4.1c0.1,2-1.5,3.8-3.6,3.9c-0.1,0-0.2,0-0.3,0c-2.1,0.1-3.9-1.6-3.9-3.7     c0-0.1,0-0.2,0-0.3H179.9z"/>
			<path class="st0" d="M190.7,204.8v-4.6l-3.9-8.1h2.1l2.8,6l2.8-6h2.1l-3.9,8.1v4.6H190.7z"/>
			<path class="st0" d="M199,201.1c-0.1,1.2,0.8,2.2,2,2.3c0,0,0.1,0,0.1,0c1.1,0,2-0.9,2-2c0-0.1,0-0.1,0-0.2c0-1.4-1.2-1.7-2-2.1     c-1-0.3-1.9-0.8-2.7-1.4c-0.6-0.7-0.9-1.5-0.9-2.4c0-1.9,1.6-3.5,3.5-3.5c0,0,0,0,0.1,0c1.9-0.1,3.5,1.3,3.6,3.2     c0,0.1,0,0.2,0,0.3h-1.9c0.1-0.9-0.6-1.8-1.6-1.8c-0.1,0-0.1,0-0.2,0c-0.9,0-1.7,0.8-1.7,1.7c0,1.2,1.1,1.5,1.7,1.8     c1.6,0.6,3.9,1.1,3.9,4.1c0.1,2-1.5,3.8-3.6,3.9c-0.1,0-0.2,0-0.3,0c-2.1,0.1-3.9-1.6-3.9-3.7c0-0.1,0-0.2,0-0.3H199z"/>
			<path class="st0" d="M208.7,204.8v-11h-2.4v-1.7h6.7v1.7h-2.4v11H208.7z"/>
			<path class="st0" d="M214.9,204.8v-12.7h6.9v1.7h-5v3.7h5v1.7h-5v3.9h5v1.7H214.9z"/>
			<path class="st0" d="M235.8,204.8v-10.7h-0.1l-4.3,10.7h-1.1l-4.3-10.7l0,0v10.7h-1.9v-12.7h2.9l3.8,9.7l3.8-9.7h2.9v12.7H235.8z     "/>
			<path class="st2" d="M59.7,232.6h-2.3v-13.9h-2.3v-2h4.6V232.6z"/>
			<path class="st2" d="M62.7,226.1v-2.3h6v2.3H62.7z"/>
			<path class="st2" d="M80.7,227.8c0,2.8-2.2,5-5,5.1c-2.8,0-5-2.2-5-4.9c0,0,0,0,0-0.1c-0.1-1.6,0.7-3.2,2.1-4.1     c-0.9-0.8-1.4-1.9-1.4-3.1c0-2.4,1.9-4.3,4.3-4.3c2.4,0,4.3,1.9,4.3,4.3c0,0,0,0,0,0c0.1,1.2-0.5,2.4-1.4,3.1     C80,224.7,80.8,226.2,80.7,227.8z M75.7,218.3c-1.2,0-2.2,1-2.2,2.2s1,2.2,2.2,2.2s2.2-1,2.2-2.2S76.9,218.3,75.7,218.3z      M75.7,225c-1.6,0.1-2.9,1.4-2.8,3c0,1.6,1.2,2.8,2.8,2.9c1.6-0.1,2.8-1.5,2.7-3.1C78.4,226.3,77.2,225.1,75.7,225L75.7,225z"/>
			<path class="st2" d="M92.9,227.4c0.1,1.3-0.3,2.6-1.2,3.6c-1,1.2-2.5,1.8-4,1.8c-1.6,0-3-0.7-4-1.9c-0.8-1-1.2-2.4-1.1-3.7v-5.6     c-0.2-2.9,2-5.3,4.9-5.5s5.3,2,5.5,4.9c0,0.1,0,0.3,0,0.4L92.9,227.4z M90.6,221.5c0-2.8-2.1-3.2-2.9-3.2c-1.6-0.1-2.9,1.2-3,2.8     c0,0.2,0,0.3,0,0.5v5.9c0,3.3,2.6,3.4,3,3.4c0.8,0,1.6-0.4,2.2-1c0.6-0.7,0.8-1.5,0.7-2.4L90.6,221.5z"/>
			<path class="st2" d="M105.8,227.4c0.1,1.3-0.3,2.6-1.2,3.6c-1,1.2-2.5,1.8-4,1.8c-1.6,0-3-0.7-4-1.9c-0.8-1-1.2-2.4-1.1-3.7v-5.6     c0-2.9,2.2-5.2,5.1-5.2c2.9,0,5.2,2.2,5.2,5.1L105.8,227.4z M103.6,221.5c0-2.8-2-3.2-2.9-3.2c-1.6-0.1-2.9,1.2-3,2.8     c0,0.1,0,0.3,0,0.4v5.9c0,3.3,2.6,3.4,3,3.4c0.8,0,1.6-0.4,2.2-1c0.6-0.7,0.8-1.5,0.7-2.4L103.6,221.5z"/>
			<path class="st2" d="M108,226.1v-2.3h6v2.3H108z"/>
			<path class="st2" d="M210,233.2v-13.5h-0.1l-5.4,13.5h-1.4l-5.4-13.5l0,0v13.5h-2.3v-16h3.6l4.8,12.3l4.8-12.3h3.7v16H210z"/>
			<path class="st2" d="M215.3,233.2v-16h8.7v2.1h-6.3v4.7h6.3v2.1h-6.3v4.9h6.3v2.1L215.3,233.2z"/>
			<path class="st2" d="M124.6,233l-1.8-4.8h-5.9l-1.8,4.8h-2.5l6.2-16.4h2.1l6.2,16.4H124.6z M121.9,226l-2.1-6.2l0,0l-2.1,6.2     H121.9z"/>
			<path class="st2" d="M128.8,233v-16.3h2.4v14.2h5.7v2.2H128.8z"/>
			<path class="st2" d="M151.2,233l-1.8-4.8h-5.9l-1.8,4.8h-2.5l6.2-16.4h2.1l6.2,16.4H151.2z M148.6,226l-2.1-6.2l0,0l-2.1,6.2     H148.6z"/>
			<path class="st2" d="M164.2,233l-5.4-7.6l0,0v7.6h-2.4v-16.3h5.1c2.3,0,3.5,0.6,4.4,1.4c1,1,1.5,2.4,1.5,3.9     c0.2,2.6-1.8,4.8-4.4,5c-0.1,0-0.2,0-0.3,0l4.6,6.1L164.2,233z M158.7,225.1h1.6c1,0,4.5,0,4.5-3.2c0-1.4-0.9-3-3.6-3h-2.5V225.1     z"/>
			<path class="st2" d="M185.5,233v-13.8h-0.1L180,233h-1.4l-5.6-13.8l0,0V233h-2.4v-16.3h3.8l4.9,12.5l4.9-12.5h3.8V233H185.5z"/>
			<g>
				<path class="st2" d="M200.3,143h2.6v0.4h-1.1v2.8h-0.4v-2.8h-1.1L200.3,143z"/>
				<path class="st2" d="M203.3,146.1V143h0.6l0.9,2.6l0.9-2.6h0.6v3.1h-0.4V144c0-0.1,0-0.3,0-0.5l-0.9,2.6h-0.4l-0.9-2.6v0.1      c0,0.1,0,0.2,0,0.4v2.2L203.3,146.1z"/>
			</g>
		</g>
	</g>
</g>
</svg>