<?xml version="1.0" encoding="UTF-8"?>
<svg id="Layer_2" data-name="Layer 2" xmlns="http://www.w3.org/2000/svg" viewBox="0 0 144.34 144.34">
  <defs>
    <style>
      .cls-1 {
        fill: #2c2928;
      }
    </style>
  </defs>
  <g id="sun">
    <g>
      <path class="cls-1" d="M72,36.09c-19.74,0-35.74,16-35.74,35.74s16,35.74,35.74,35.74,35.74-16,35.74-35.74-16-35.74-35.74-35.74ZM72,98.89c-14.95,0-27.06-12.12-27.06-27.06s12.12-27.06,27.06-27.06,27.06,12.12,27.06,27.06-12.12,27.06-27.06,27.06Z"/>
      <g>
        <rect class="cls-1" x="68.09" y="0" width="8.17" height="27.74" rx="4.09" ry="4.09"/>
        <rect class="cls-1" x="68.09" y="116.6" width="8.17" height="27.74" rx="4.09" ry="4.09"/>
      </g>
      <g>
        <rect class="cls-1" x="109.31" y="17.08" width="8.17" height="27.74" rx="4.09" ry="4.09" transform="translate(55.1 -71.12) rotate(45)"/>
        <rect class="cls-1" x="26.86" y="99.52" width="8.17" height="27.74" rx="4.09" ry="4.09" transform="translate(89.25 11.33) rotate(45)"/>
      </g>
      <g>
        <rect class="cls-1" x="126.38" y="58.3" width="8.17" height="27.74" rx="4.09" ry="4.09" transform="translate(202.64 -58.3) rotate(90)"/>
        <rect class="cls-1" x="9.79" y="58.3" width="8.17" height="27.74" rx="4.09" ry="4.09" transform="translate(86.04 58.3) rotate(90)"/>
      </g>
      <g>
        <rect class="cls-1" x="109.31" y="99.52" width="8.17" height="27.74" rx="4.09" ry="4.09" transform="translate(273.75 113.39) rotate(135)"/>
        <rect class="cls-1" x="26.86" y="17.08" width="8.17" height="27.74" rx="4.09" ry="4.09" transform="translate(74.71 30.95) rotate(135)"/>
      </g>
    </g>
  </g>
</svg>